<svg width="12" height="9" viewBox="0 0 12 9" fill="none" xmlns="http://www.w3.org/2000/svg">
<path fill-rule="evenodd" clip-rule="evenodd" d="M11.597 2.38483L5.47375 8.59088C5.21339 8.85476 4.8673 9 4.49913 9C4.13097 9 3.78487 8.85476 3.52451 8.59088L0.40376 5.42791C0.143401 5.16403 0 4.81326 0 4.44011C0 4.06686 0.143401 3.71609 0.40376 3.45221C0.664018 3.18832 1.01011 3.04298 1.37838 3.04298C1.74654 3.04298 2.09274 3.18832 2.353 3.45231L4.49903 5.62727L9.64754 0.409119C9.9079 0.145238 10.254 0 10.6222 0C10.9903 0 11.3364 0.145238 11.5968 0.409119C12.1344 0.953993 12.1344 1.84016 11.597 2.38483Z" fill="#32abff"/>
</svg>
